<svg width="90" height="91" viewBox="0 0 90 91" fill="none" xmlns="http://www.w3.org/2000/svg">
<g clip-path="url(#clip0_718_40194)">
<path d="M52.6745 77.2126C65.9394 77.2126 76.6927 66.4872 76.6927 53.2567C76.6927 40.0262 65.9394 29.3008 52.6745 29.3008C39.4096 29.3008 28.6562 40.0262 28.6562 53.2567C28.6562 66.4872 39.4096 77.2126 52.6745 77.2126Z" stroke="white" stroke-width="2.89997" stroke-miterlimit="10"/>
<path d="M72.7933 65.7812L88.1541 81.1112L80.6003 88.6454L65.2305 73.3244" stroke="white" stroke-width="2.89997" stroke-miterlimit="10"/>
<path d="M28.6573 53.2558H1.15625V1.64453H70.3523V37.0416" stroke="white" stroke-width="2.89997" stroke-miterlimit="10"/>
<path d="M18.4072 18.2461H10.582V46.515H18.4072V18.2461Z" stroke="white" stroke-width="2.89997" stroke-miterlimit="10"/>
<path d="M29.6272 46.5156H25.4297V29.0742H33.2458V39.1799" stroke="white" stroke-width="2.89997" stroke-miterlimit="10"/>
<path d="M39.8672 32.9983V11.9297H47.6923V29.8222" stroke="white" stroke-width="2.89997" stroke-miterlimit="10"/>
<path d="M54.7109 29.3903V23.6602H62.527V31.2943" stroke="white" stroke-width="2.89997" stroke-miterlimit="10"/>
</g>
<defs>
<clipPath id="clip0_718_40194">
<rect width="90" height="90" fill="white" transform="translate(0 0.492188)"/>
</clipPath>
</defs>
</svg>
