<svg width="90" height="91" viewBox="0 0 90 91" fill="none" xmlns="http://www.w3.org/2000/svg">
<g clip-path="url(#clip0_718_40175)">
<path d="M71.9519 45.8791C71.9519 31.7223 60.4724 20.2461 46.3201 20.2461C32.1678 20.2461 20.6797 31.7223 20.6797 45.8791C20.6797 56.5588 27.2161 65.7141 36.5026 69.5595V82.2261H56.1633V69.5424C65.4326 65.6799 71.9519 56.5417 71.9519 45.8706V45.8791Z" stroke="white" stroke-width="2.5693" stroke-miterlimit="10"/>
<path d="M52.3813 82.4414C52.3813 85.6405 49.7731 88.242 46.5461 88.242C43.3191 88.242 40.7109 85.6493 40.7109 82.4414" stroke="white" stroke-width="2.94915" stroke-miterlimit="10"/>
<path d="M46.4375 1.24219V13.6168" stroke="white" stroke-width="2.94915" stroke-miterlimit="10"/>
<path d="M68.2285 6.94531L62.1016 17.7115" stroke="white" stroke-width="2.94915" stroke-miterlimit="10"/>
<path d="M84.3744 22.5703L73.7031 28.9422" stroke="white" stroke-width="2.94915" stroke-miterlimit="10"/>
<path d="M90.6866 44.0781L78.2383 44.4052" stroke="white" stroke-width="2.94915" stroke-miterlimit="10"/>
<path d="M85.5247 65.8826L74.5352 60.082" stroke="white" stroke-width="2.94915" stroke-miterlimit="10"/>
<path d="M24.0547 7.28906L30.3496 17.9586" stroke="white" stroke-width="2.94915" stroke-miterlimit="10"/>
<path d="M7.8125 23.7578L18.6783 29.7957" stroke="white" stroke-width="2.94915" stroke-miterlimit="10"/>
<path d="M2.1875 46.1264L14.627 45.8789" stroke="white" stroke-width="2.94915" stroke-miterlimit="10"/>
<path d="M8.71875 68.2576L19.3193 61.7891" stroke="white" stroke-width="2.94915" stroke-miterlimit="10"/>
<path d="M36.2617 74.4023H56.5522" stroke="white" stroke-width="2.94915" stroke-miterlimit="10"/>
</g>
<defs>
<clipPath id="clip0_718_40175">
<rect width="90" height="90" fill="white" transform="translate(0 0.492188)"/>
</clipPath>
</defs>
</svg>
