<svg width="28" height="29" viewBox="0 0 28 29" fill="none" xmlns="http://www.w3.org/2000/svg">
<path d="M10.9536 16.3022C13.1577 16.3022 14.9444 14.5154 14.9444 12.3113C14.9444 10.1071 13.1577 8.32031 10.9536 8.32031C8.74961 8.32031 6.96289 10.1071 6.96289 12.3113C6.96289 14.5154 8.74961 16.3022 10.9536 16.3022Z" stroke="#666666" stroke-width="1.2" stroke-miterlimit="10"/>
<path d="M18.2599 23.6108C18.2599 19.5766 14.9882 16.3047 10.9542 16.3047C6.92021 16.3047 3.64844 19.5744 3.64844 23.6108H18.2599Z" stroke="#666666" stroke-width="1.2" stroke-miterlimit="10"/>
<path d="M14.0156 8.02522C14.7164 6.87617 15.9814 6.10938 17.4239 6.10938C19.6286 6.10938 21.4146 7.89552 21.4146 10.1003C21.4146 12.3052 19.6286 14.0913 17.4239 14.0913" stroke="#666666" stroke-width="1.2" stroke-miterlimit="10"/>
<path d="M19.0184 21.396H24.7315C24.7315 17.3618 21.4598 14.0898 17.4258 14.0898" stroke="#666666" stroke-width="1.2" stroke-miterlimit="10"/>
</svg>
