<svg width="28" height="29" viewBox="0 0 28 29" fill="none" xmlns="http://www.w3.org/2000/svg">
<path d="M21.7031 14C22.3935 14 22.9531 13.4404 22.9531 12.75C22.9531 12.0596 22.3935 11.5 21.7031 11.5C21.0128 11.5 20.4531 12.0596 20.4531 12.75C20.4531 13.4404 21.0128 14 21.7031 14Z" stroke="#666666" stroke-miterlimit="10"/>
<path d="M22.5195 9.48846L22.7527 9.85531C22.9837 10.2176 23.3755 10.4441 23.8035 10.4622L24.2383 10.4803C24.8746 10.5075 25.2663 11.1868 24.972 11.7507L24.7704 12.1357C24.5734 12.5161 24.5734 12.969 24.7704 13.3495L24.972 13.7344C25.2663 14.2983 24.8746 14.9776 24.2383 15.0048L23.8035 15.0229C23.3755 15.041 22.9837 15.2675 22.7527 15.6298L22.5195 15.9967C22.1775 16.5334 21.394 16.5334 21.0521 15.9967L20.8188 15.6298C20.5879 15.2675 20.1961 15.041 19.7681 15.0229L19.3333 15.0048C18.697 14.9776 18.3052 14.2983 18.5996 13.7344L18.8012 13.3495C18.9982 12.969 18.9982 12.5161 18.8012 12.1357L18.5996 11.7507C18.3052 11.1868 18.697 10.5075 19.3333 10.4803L19.7681 10.4622C20.1961 10.4441 20.5879 10.2176 20.8188 9.85531L21.0521 9.48846C21.394 8.95176 22.1775 8.95176 22.5195 9.48846Z" stroke="#666666" stroke-miterlimit="10"/>
<path d="M11.8974 14.8534C14.4112 14.8534 16.4491 12.8155 16.4491 10.3017C16.4491 7.78786 14.4112 5.75 11.8974 5.75C9.38356 5.75 7.3457 7.78786 7.3457 10.3017C7.3457 12.8155 9.38356 14.8534 11.8974 14.8534Z" stroke="#666666" stroke-width="1.2" stroke-miterlimit="10"/>
<path d="M3.5 23.2484C3.5 18.6107 7.2591 14.8516 11.8968 14.8516C16.5346 14.8516 20.2937 18.6107 20.2937 23.2484H3.5Z" stroke="#666666" stroke-width="1.2" stroke-miterlimit="10"/>
</svg>
