<svg width="20" height="20" viewBox="0 0 20 20" fill="none" xmlns="http://www.w3.org/2000/svg">
<path fill-rule="evenodd" clip-rule="evenodd" d="M9.9987 14.8346C13.3604 14.8346 16.4037 12.9596 18.0387 10.0013C16.4037 7.04297 13.3604 5.16797 9.9987 5.16797C6.63703 5.16797 3.5937 7.04297 1.9587 10.0013C3.5937 12.9596 6.63703 14.8346 9.9987 14.8346ZM9.9987 4.16797C14.0054 4.16797 17.4754 6.5413 19.1654 10.0013C17.4754 13.4613 14.0054 15.8346 9.9987 15.8346C5.99203 15.8346 2.52203 13.4613 0.832031 10.0013C2.52203 6.5413 5.99203 4.16797 9.9987 4.16797ZM9.9987 12.3346C10.6175 12.3346 11.211 12.0888 11.6486 11.6512C12.0862 11.2136 12.332 10.6201 12.332 10.0013C12.332 9.38246 12.0862 8.78897 11.6486 8.35139C11.211 7.9138 10.6175 7.66797 9.9987 7.66797C9.37986 7.66797 8.78637 7.9138 8.34878 8.35139C7.9112 8.78897 7.66537 9.38246 7.66537 10.0013C7.66537 10.6201 7.9112 11.2136 8.34878 11.6512C8.78637 12.0888 9.37986 12.3346 9.9987 12.3346ZM9.9987 13.3346C9.11465 13.3346 8.2668 12.9834 7.64168 12.3583C7.01656 11.7332 6.66537 10.8854 6.66537 10.0013C6.66537 9.11725 7.01656 8.2694 7.64168 7.64428C8.2668 7.01916 9.11465 6.66797 9.9987 6.66797C10.8828 6.66797 11.7306 7.01916 12.3557 7.64428C12.9808 8.2694 13.332 9.11725 13.332 10.0013C13.332 10.8854 12.9808 11.7332 12.3557 12.3583C11.7306 12.9834 10.8828 13.3346 9.9987 13.3346Z" fill="#999999"/>
</svg>
