<svg width="90" height="91" viewBox="0 0 90 91" fill="none" xmlns="http://www.w3.org/2000/svg">
<g clip-path="url(#clip0_718_40208)">
<path d="M54.5156 22.75H67.3507" stroke="white" stroke-width="2.94916" stroke-miterlimit="10"/>
<path d="M54.5156 31.8086H67.3507" stroke="white" stroke-width="2.94916" stroke-miterlimit="10"/>
<path d="M23.4141 67.7148H36.2492" stroke="white" stroke-width="2.94916" stroke-miterlimit="10"/>
<path d="M23.4141 58.5234H36.2492" stroke="white" stroke-width="2.94916" stroke-miterlimit="10"/>
<path d="M67.3518 88.9912C79.0319 88.9912 88.5004 79.4495 88.5004 67.6792C88.5004 55.9089 79.0319 46.3672 67.3518 46.3672C55.6717 46.3672 46.2031 55.9089 46.2031 67.6792C46.2031 79.4495 55.6717 88.9912 67.3518 88.9912Z" stroke="white" stroke-width="2.94916" stroke-miterlimit="10"/>
<path d="M13.0741 13.793H1.5V44.9804C9.6244 44.9804 45.1033 44.9804 45.1033 44.9804V32.854H34.4299V46.351" stroke="white" stroke-width="2.94916" stroke-miterlimit="10"/>
<path d="M12.1719 45.4331V1.99219H23.746V24.6838" stroke="white" stroke-width="2.94916" stroke-miterlimit="10"/>
<path d="M23.75 46.3405V24.6836H34.4234V32.8526" stroke="white" stroke-width="2.94916" stroke-miterlimit="10"/>
<path d="M50.2826 80.2676H16.1367V43.6523" stroke="white" stroke-width="2.94916" stroke-miterlimit="10"/>
<path d="M22.5156 10.0352H73.1985V47.195" stroke="white" stroke-width="2.94916" stroke-miterlimit="10"/>
<path d="M67.3516 46.3672V67.298H88.5002" stroke="white" stroke-width="2.94916" stroke-miterlimit="10"/>
<path d="M67.3536 67.2969L50.2852 80.2674" stroke="white" stroke-width="2.94916" stroke-miterlimit="10"/>
</g>
<defs>
<clipPath id="clip0_718_40208">
<rect width="90" height="90" fill="white" transform="translate(0 0.492188)"/>
</clipPath>
</defs>
</svg>
