<svg width="70" height="70" viewBox="0 0 70 70" fill="none" xmlns="http://www.w3.org/2000/svg">
<g filter="url(#filter0_d_7316_223878)">
<path d="M33 56C46.8071 56 58 44.8071 58 31C58 17.1929 46.8071 6 33 6C19.1929 6 8 17.1929 8 31C8 44.8071 19.1929 56 33 56Z" fill="url(#paint0_linear_7316_223878)"/>
<path d="M57.5 31C57.5 44.531 46.531 55.5 33 55.5C19.469 55.5 8.5 44.531 8.5 31C8.5 17.469 19.469 6.5 33 6.5C46.531 6.5 57.5 17.469 57.5 31Z" stroke="url(#paint1_linear_7316_223878)" stroke-opacity="0.3"/>
</g>
<path d="M33.0026 35.1667C30.7012 35.1667 28.8359 33.3014 28.8359 31V22.6667C28.8359 20.3653 30.7012 18.5 33.0026 18.5C35.304 18.5 37.1693 20.3653 37.1693 22.6667V31C37.1693 33.3014 35.304 35.1667 33.0026 35.1667Z" fill="white"/>
<path d="M26.0547 26.8359V31.0026C26.0547 31.0026 26.0547 37.947 32.9991 37.947" stroke="white" stroke-width="2" stroke-miterlimit="10" stroke-linecap="round" stroke-linejoin="round"/>
<path d="M33 37.947C39.9444 37.947 39.9444 31.0026 39.9444 31.0026V26.8359" stroke="white" stroke-width="2" stroke-miterlimit="10" stroke-linecap="round" stroke-linejoin="round"/>
<path d="M33 37.9453V43.5009" stroke="white" stroke-width="2" stroke-miterlimit="10" stroke-linecap="round" stroke-linejoin="round"/>
<defs>
<filter id="filter0_d_7316_223878" x="0" y="0" width="70" height="70" filterUnits="userSpaceOnUse" color-interpolation-filters="sRGB">
<feFlood flood-opacity="0" result="BackgroundImageFix"/>
<feColorMatrix in="SourceAlpha" type="matrix" values="0 0 0 0 0 0 0 0 0 0 0 0 0 0 0 0 0 0 127 0" result="hardAlpha"/>
<feOffset dx="2" dy="4"/>
<feGaussianBlur stdDeviation="5"/>
<feComposite in2="hardAlpha" operator="out"/>
<feColorMatrix type="matrix" values="0 0 0 0 0.866667 0 0 0 0 0.866667 0 0 0 0 0.866667 0 0 0 0.6 0"/>
<feBlend mode="normal" in2="BackgroundImageFix" result="effect1_dropShadow_7316_223878"/>
<feBlend mode="normal" in="SourceGraphic" in2="effect1_dropShadow_7316_223878" result="shape"/>
</filter>
<linearGradient id="paint0_linear_7316_223878" x1="16.734" y1="13.9746" x2="51.274" y2="50.1271" gradientUnits="userSpaceOnUse">
<stop stop-color="#DDDDDD"/>
<stop offset="0.6075" stop-color="#DDDDDD"/>
<stop offset="1" stop-color="#DDDDDD"/>
</linearGradient>
<linearGradient id="paint1_linear_7316_223878" x1="21.8889" y1="13.6389" x2="42.0278" y2="49.0556" gradientUnits="userSpaceOnUse">
<stop stop-opacity="0.4"/>
<stop offset="0.47" stop-opacity="0.2"/>
<stop offset="1" stop-opacity="0.6"/>
</linearGradient>
</defs>
</svg>
