<svg width="28" height="29" viewBox="0 0 28 29" fill="none" xmlns="http://www.w3.org/2000/svg">
<rect y="0.5" width="28" height="28" rx="14" fill="#EEEEEE"/>
<path fill-rule="evenodd" clip-rule="evenodd" d="M14 20.8857C17.6673 20.8857 20.9873 17.7964 22.7709 14.5C20.9873 11.2036 17.6673 8.11429 14 8.11429C10.3327 8.11429 7.01273 11.2036 5.22909 14.5C7.01273 17.7964 10.3327 20.8857 14 20.8857ZM14 7C18.3709 7 22.1564 10.6446 24 14.5C22.1564 18.3554 18.3709 22 14 22C9.62909 22 5.84364 18.3554 4 14.5C5.84364 10.6446 9.62909 7 14 7ZM14 17.1C14.6751 17.1 15.3225 16.8261 15.7999 16.3385C16.2773 15.8509 16.5455 15.1896 16.5455 14.5C16.5455 13.8104 16.2773 13.1491 15.7999 12.6615C15.3225 12.1739 14.6751 11.9 14 11.9C13.3249 11.9 12.6775 12.1739 12.2001 12.6615C11.7227 13.1491 11.4545 13.8104 11.4545 14.5C11.4545 15.1896 11.7227 15.8509 12.2001 16.3385C12.6775 16.8261 13.3249 17.1 14 17.1ZM14 18.2143C13.0356 18.2143 12.1107 17.823 11.4287 17.1264C10.7468 16.4298 10.3636 15.4851 10.3636 14.5C10.3636 13.5149 10.7468 12.5702 11.4287 11.8736C12.1107 11.177 13.0356 10.7857 14 10.7857C14.9644 10.7857 15.8893 11.177 16.5713 11.8736C17.2532 12.5702 17.6364 13.5149 17.6364 14.5C17.6364 15.4851 17.2532 16.4298 16.5713 17.1264C15.8893 17.823 14.9644 18.2143 14 18.2143Z" fill="#999999"/>
</svg>
