<svg width="193" height="40" viewBox="0 0 193 40" fill="none" xmlns="http://www.w3.org/2000/svg">
<g clip-path="url(#clip0_724_36205)">
<path fill-rule="evenodd" clip-rule="evenodd" d="M7.83708 26.1294C7.83708 27.1522 8.41705 28.1899 9.14574 28.7087V28.679L16.2987 33.8672C17.2654 34.5787 18.7227 34.638 19.5406 33.8672L26.6342 27.0485C26.9465 26.7372 27.4967 26.6927 27.8685 26.9595L37.4157 33.882C38.427 34.6231 39.8843 34.6231 40.6576 33.882L45 29.7166V35.6015C45 37.7509 43.2601 39.5 41.0889 39.5H3.9111C1.75479 39.5 0 37.7657 0 35.6015V4.39852C0 2.24914 1.75479 0.5 3.9111 0.5H7.83708V26.1294ZM28.909 20.8227L18.7669 30.5764H18.752C18.3207 30.9766 17.6069 30.8136 17.6069 30.1169V0.5H41.0735C43.2298 0.5 44.9846 2.23432 44.9846 4.39852V25.6402L42.6499 27.8934C42.3376 28.2047 41.7725 28.2491 41.4156 27.9823L31.3478 20.6893C30.5597 20.1112 29.7864 19.9926 28.909 20.8227Z" fill="#A72B2A"/>
<path fill-rule="evenodd" clip-rule="evenodd" d="M59.5879 5C60.1166 5 60.531 5.46225 60.531 6.01695H60.5167V27.5116C60.5167 28.0663 60.9455 28.5285 61.4599 28.5285H78.1511C78.4369 28.5285 78.6084 28.9445 78.4226 29.1757L74.8929 33.7211C74.2355 34.5532 73.4067 35 72.3206 35H56.7584C54.6863 35 53 33.1972 53 30.9476V6.01695C53 5.44684 53.4287 5 53.9432 5H59.5879ZM93.5101 25.0821L86.2074 33.7218H86.1919C85.6027 34.4302 84.3468 35 83.4165 35H77.3852C77.0751 35 76.889 34.5842 77.0751 34.3532C84.9489 25.0385 90.7038 18.2246 94.9165 13.2366C97.3485 10.3571 99.2666 8.08606 100.782 6.29363C101.386 5.56981 102.642 5 103.573 5H109.604C109.914 5 110.1 5.41581 109.899 5.64682L97.7894 19.9846L109.914 34.3532C110.116 34.5842 109.945 35 109.619 35H103.588C102.658 35 101.417 34.4302 100.813 33.7218L93.5101 25.0821ZM83.4476 5.01501C84.3779 5.01501 85.6182 5.60023 86.2229 6.30865C89.0913 9.71214 92.0009 13.25 92.0009 13.25L87.7061 18.3167L77.1061 5.66183C76.9046 5.43083 77.0906 5.01501 77.4007 5.01501H83.4476Z" fill="#746661"/>
<path fill-rule="evenodd" clip-rule="evenodd" d="M148.828 4.99609H148.828H143.608C143.243 4.99609 142.995 5.14688 142.852 5.46157L137.443 14.9874C137.143 15.5184 136.81 16.1281 136.438 16.8099C136.066 17.4983 135.701 18.1867 135.342 18.8881C134.983 19.5896 134.657 20.2518 134.357 20.8811C134.259 21.0852 134.169 21.2753 134.086 21.4514L134.086 21.4515L134.085 21.4518C133.962 21.7114 133.854 21.9408 133.757 22.1399C133.659 21.9406 133.551 21.7111 133.427 21.4514L133.427 21.4513L133.427 21.4509C133.344 21.2748 133.254 21.0849 133.156 20.8811C132.856 20.2518 132.53 19.5896 132.171 18.8881C131.812 18.1867 131.453 17.4983 131.068 16.8099C130.703 16.1215 130.364 15.5118 130.064 14.9874L124.616 5.46157C124.498 5.15344 124.257 4.99609 123.905 4.99609H118.626C118.209 4.99609 118 5.20588 118 5.62546V34.3667C118 34.7863 118.209 34.9961 118.626 34.9961H123.102C123.546 34.9961 123.768 34.7863 123.768 34.3667V13.3025L124.75 15.5036C124.75 15.5036 126.41 19.0783 127.16 20.4812L131.095 27.6534C131.238 27.955 131.499 28.1124 131.851 28.1124H135.649C136.007 28.1124 136.262 27.9616 136.412 27.6534L140.34 20.4812C141.083 19.0783 141.808 17.7081 142.506 16.3641C143.086 15.2627 143.602 14.24 144.065 13.3025C143.987 15.2168 143.909 17.2492 143.843 19.4061C143.765 21.7728 143.732 23.9428 143.732 25.9358V34.3667C143.732 34.7863 143.941 34.9961 144.359 34.9961H148.828C149.278 34.9961 149.5 34.7863 149.5 34.3667V5.62546C149.5 5.20601 149.278 4.99622 148.828 4.99609ZM156.061 35.0034C155.752 35.0034 155.499 34.7607 155.499 34.4656V5.5412C155.499 5.24605 155.752 5.00337 156.061 5.00337H166.129C171.629 5.00337 175.006 6.34137 178.013 8.97801C180.985 11.5819 182.499 15.2876 182.499 19.9771C182.499 24.6667 180.992 28.438 178.013 31.0484C175.006 33.6719 171.636 35.0034 166.129 35.0034H156.061ZM161.609 29.6645H164.444C168.232 29.6645 171.102 28.8774 172.972 27.323C174.883 25.7423 175.848 23.2697 175.848 19.9771C175.848 16.6846 174.883 14.271 172.972 12.6903C171.074 11.1227 168.287 10.3554 164.444 10.3554H161.609V29.6645ZM192.349 4.99609H187.652C187.292 4.99609 187.001 5.278 187.001 5.62546V34.3667C187.001 34.7142 187.292 34.9961 187.652 34.9961H192.349C192.709 34.9961 193.001 34.7142 193.001 34.3667V5.62546C193.001 5.278 192.709 4.99609 192.349 4.99609Z" fill="#746661"/>
</g>
<defs>
<clipPath id="clip0_724_36205">
<rect width="193.001" height="40" fill="white"/>
</clipPath>
</defs>
</svg>
