<svg width="182" height="30" viewBox="0 0 182 30" fill="none" xmlns="http://www.w3.org/2000/svg">
<g clip-path="url(#clip0_714_33865)">
<path fill-rule="evenodd" clip-rule="evenodd" d="M6.13194 0.00994378C6.6221 0.00994378 7.01222 0.437526 7.01222 0.954603H7.00222V20.9018C7.00222 21.4189 7.40234 21.8465 7.88249 21.8465H23.4074C23.6775 21.8465 23.8375 22.2343 23.6575 22.4431L20.3764 26.6593C19.7663 27.4349 18.996 27.8426 17.9857 27.8426H3.4911C1.56049 27.8426 0 26.172 0 24.0838V0.954603C0 0.427583 0.400127 0.00994378 0.880279 0.00994378H6.13194ZM37.6819 18.6446L30.8898 26.6593H30.8798C30.3296 27.3156 29.1592 27.8426 28.299 27.8426H22.6872C22.3971 27.8426 22.227 27.4548 22.3971 27.246C29.7194 18.6048 35.0711 12.2806 38.9923 7.64677C41.2531 4.97189 43.0436 2.86381 44.4441 1.2032C45.0042 0.52702 46.1746 0 47.0349 0H52.6467C52.9368 0 53.1068 0.387807 52.9167 0.596627L41.6532 13.9014L52.9267 27.236C53.1168 27.4548 52.9568 27.8326 52.6567 27.8326H47.0449C46.1846 27.8326 45.0242 27.3056 44.4641 26.6493L37.6719 18.6346L37.6819 18.6446ZM28.319 0.0198876C29.1892 0.0198876 30.3396 0.566796 30.8998 1.22309C33.5706 4.38521 36.2715 7.66666 36.2715 7.66666L32.2802 12.3701L22.4171 0.626458C22.227 0.407695 22.4071 0.0298313 22.6872 0.0298313H28.309L28.319 0.0198876Z" fill="#746661"/>
<path d="M66.0259 11.7536V0.178988H68.6167V11.7536H66.0259Z" fill="#746661"/>
<path d="M78.1897 0.178988V7.21919L72.668 0.178988H70.8574V11.7536H73.4482V4.82273L78.8899 11.7536H80.7805V0.178988H78.1897Z" fill="#746661"/>
<path d="M92.1141 0.178988H82.231V2.42628H85.8721V11.7536H88.463V2.42628H92.1141V0.178988Z" fill="#746661"/>
<path d="M96.1454 9.52614V6.92087H101.337V4.77302H96.1454V2.39645H101.837V0.178988H93.5546V11.7536H101.917V9.52614H96.1454Z" fill="#746661"/>
<path d="M106.289 9.49631V0.178988H103.698V11.7536H111.45V9.49631H106.289Z" fill="#746661"/>
<path d="M115.542 9.49631V0.178988H112.951V11.7536H120.703V9.49631H115.542Z" fill="#746661"/>
<path d="M122.204 11.7536V0.178988H124.794V11.7536H122.204Z" fill="#746661"/>
<path d="M132.287 5.2006V7.37829L135.618 7.42801C135.558 7.66666 135.488 7.88542 135.378 8.08429C135.118 8.57154 134.748 8.93946 134.277 9.198C133.797 9.45654 133.217 9.58581 132.537 9.58581C131.857 9.58581 131.277 9.43665 130.756 9.12839C130.236 8.82014 129.836 8.39255 129.536 7.84564C129.236 7.29874 129.086 6.66233 129.086 5.94638C129.086 5.23043 129.236 4.59403 129.536 4.05706C129.836 3.5201 130.256 3.09252 130.796 2.7942C131.337 2.49589 131.947 2.34673 132.627 2.34673C133.267 2.34673 133.837 2.46606 134.337 2.70471C134.848 2.94336 135.288 3.30134 135.658 3.78858L137.418 2.03848C136.878 1.40207 136.198 0.904884 135.378 0.546908C134.558 0.188932 133.647 0.00994378 132.647 0.00994378C131.777 0.00994378 130.966 0.1591 130.206 0.457414C129.446 0.755727 128.786 1.18331 128.216 1.72027C127.645 2.25724 127.205 2.89364 126.885 3.60959C126.565 4.33549 126.405 5.1111 126.405 5.95633C126.405 6.80155 126.565 7.57716 126.875 8.313C127.185 9.04884 127.615 9.6753 128.166 10.2123C128.716 10.7492 129.366 11.1768 130.106 11.4851C130.846 11.7933 131.647 11.9425 132.487 11.9425C133.637 11.9425 134.658 11.7038 135.548 11.2166C136.428 10.7393 137.128 10.0233 137.629 9.07867C138.129 8.13401 138.379 6.97059 138.379 5.57846V5.2006H132.257H132.287Z" fill="#746661"/>
<path d="M142.56 9.52614V6.92087H147.762V4.77302H142.56V2.39645H148.252V0.178988H139.979V11.7536H148.332V9.52614H142.56Z" fill="#746661"/>
<path d="M157.455 0.178988V7.21919L151.933 0.178988H150.112V11.7536H152.703V4.82273L158.145 11.7536H160.046V0.178988H157.455Z" fill="#746661"/>
<path d="M167.808 11.9325C166.938 11.9325 166.138 11.7834 165.397 11.4851C164.657 11.1868 164.007 10.7592 163.447 10.2123C162.886 9.66536 162.456 9.02895 162.156 8.30306C161.846 7.57716 161.696 6.7916 161.696 5.94638C161.696 5.10116 161.846 4.32555 162.156 3.58971C162.466 2.86381 162.897 2.23735 163.447 1.70039C163.997 1.16342 164.647 0.745784 165.387 0.44747C166.128 0.149157 166.938 0 167.808 0C168.728 0 169.549 0.149157 170.269 0.44747C170.989 0.745784 171.619 1.14354 172.159 1.66061L170.429 3.40077C170.119 3.07263 169.749 2.81409 169.319 2.6351C168.888 2.44617 168.378 2.35668 167.808 2.35668C167.298 2.35668 166.838 2.44617 166.418 2.61521C165.997 2.78426 165.627 3.03285 165.327 3.34111C165.027 3.65931 164.787 4.03718 164.617 4.48465C164.447 4.93212 164.357 5.42931 164.357 5.95633C164.357 6.48335 164.447 7.00042 164.617 7.44789C164.787 7.89536 165.027 8.28317 165.327 8.59143C165.627 8.90963 165.987 9.15822 166.418 9.32727C166.838 9.50626 167.308 9.58581 167.808 9.58581C168.398 9.58581 168.918 9.49631 169.359 9.30738C169.799 9.11845 170.179 8.86985 170.499 8.54171L172.249 10.2819C171.689 10.7989 171.049 11.1967 170.329 11.495C169.609 11.7933 168.778 11.9325 167.828 11.9325H167.808Z" fill="#746661"/>
<path d="M176.231 9.52614V6.92087H181.432V4.77302H176.231V2.39645H181.923V0.178988H173.65V11.7536H182.003V9.52614H176.231Z" fill="#746661"/>
<path d="M74.2682 18.2168C73.9181 17.6699 73.458 17.2423 72.8578 16.9539C72.2576 16.6655 71.6074 16.5164 70.8672 16.5164H66.0156V28.0611H68.5964V23.8648H70.8672C71.5974 23.8648 72.2676 23.7157 72.8578 23.4174C73.448 23.1191 73.9181 22.6915 74.2682 22.1446C74.6183 21.5977 74.7884 20.9414 74.7884 20.1956C74.7884 19.4498 74.6183 18.7935 74.2682 18.2466V18.2168ZM71.9875 21.0806C71.8375 21.3292 71.6274 21.5181 71.3673 21.6573C71.1072 21.7866 70.8171 21.8562 70.497 21.8562H68.6064V18.5051H70.497C70.8171 18.5051 71.1072 18.5748 71.3673 18.704C71.6274 18.8333 71.8375 19.0222 71.9875 19.2808C72.1376 19.5294 72.2176 19.8277 72.2176 20.1757C72.2176 20.5237 72.1376 20.8419 71.9875 21.0905V21.0806Z" fill="#746661"/>
<path d="M96.9154 28.0412H99.9764L96.2452 23.1887C96.6453 23.1191 97.0154 23.0196 97.3455 22.8605C97.9357 22.5821 98.3959 22.1843 98.726 21.6772C99.0561 21.1701 99.2161 20.5834 99.2161 19.9072C99.2161 19.231 99.0561 18.6543 98.726 18.1372C98.3959 17.6202 97.9457 17.2224 97.3655 16.934C96.7854 16.6457 96.1151 16.4965 95.3449 16.4965H90.6134V28.0412H93.1942V23.2881H93.4643L96.9254 28.0412H96.9154ZM93.1842 18.4952H95.0448C95.565 18.4952 95.9551 18.6344 96.2252 18.9029C96.4953 19.1714 96.6353 19.5194 96.6353 19.9371C96.6353 20.3845 96.4953 20.7425 96.2152 21.001C95.9351 21.2596 95.535 21.3888 95.0248 21.3888H93.1842V18.4952Z" fill="#746661"/>
<path d="M109.759 16.5064H99.9063V18.7438H103.547V28.0412H106.128V18.7438H109.759V16.5064Z" fill="#746661"/>
<path d="M117.672 28.0412H120.403L115.851 16.4965H113.521L108.919 28.0412H111.6L112.37 25.953H116.922L117.682 28.0412H117.672ZM113.131 23.8648L114.651 19.7481L116.151 23.8648H113.131Z" fill="#746661"/>
<path d="M124.214 25.7939V16.5064H121.633V28.0412H129.356V25.7939H124.214Z" fill="#746661"/>
<path d="M82.6609 28.0015C81.7706 28.0015 80.9504 27.8424 80.2001 27.5341C79.4499 27.2258 78.7897 26.7983 78.2195 26.2414C77.6493 25.6846 77.2092 25.0482 76.8991 24.3123C76.589 23.5765 76.4289 22.781 76.4289 21.9358C76.4289 21.0905 76.589 20.2751 76.8991 19.5492C77.2092 18.8233 77.6393 18.177 78.1995 17.6301C78.7597 17.0832 79.4099 16.6556 80.1601 16.3573C80.9103 16.049 81.7306 15.8999 82.6209 15.8999C83.5112 15.8999 84.3114 16.049 85.0617 16.3573C85.8119 16.6655 86.4721 17.0832 87.0323 17.6301C87.5924 18.177 88.0326 18.8233 88.3427 19.5492C88.6528 20.2851 88.8128 21.0806 88.8128 21.9457C88.8128 22.8108 88.6528 23.5864 88.3427 24.3223C88.0326 25.0581 87.5924 25.6945 87.0423 26.2414C86.4821 26.7883 85.8319 27.2159 85.0817 27.5242C84.3314 27.8324 83.5212 27.9915 82.6509 27.9915L82.6609 28.0015ZM82.6309 25.6249C83.3311 25.6249 83.9413 25.4658 84.4715 25.1575C85.0016 24.8493 85.4118 24.4118 85.7019 23.8549C85.9919 23.298 86.132 22.6517 86.132 21.9258C86.132 21.369 86.052 20.8718 85.8819 20.4243C85.7119 19.9768 85.4718 19.589 85.1617 19.2609C84.8516 18.9327 84.4815 18.6841 84.0513 18.5151C83.6212 18.346 83.151 18.2566 82.6209 18.2566C81.9207 18.2566 81.3105 18.4057 80.7803 18.714C80.2501 19.0222 79.84 19.4399 79.5499 19.9868C79.2598 20.5337 79.1198 21.18 79.1198 21.9159C79.1198 22.4727 79.1998 22.9699 79.3698 23.4273C79.5399 23.8847 79.77 24.2725 80.0801 24.6007C80.3902 24.9288 80.7603 25.1774 81.1904 25.3564C81.6206 25.5354 82.1007 25.6249 82.6209 25.6249H82.6309Z" fill="#746661"/>
<path d="M153.424 20.971C153.914 20.971 154.324 21.0506 154.654 21.2097C154.994 21.3688 155.244 21.5876 155.404 21.866C155.574 22.1444 155.654 22.4626 155.654 22.8206C155.654 23.2283 155.544 23.5564 155.324 23.805C155.104 24.0437 154.814 24.2127 154.464 24.3022V24.3718C154.704 24.3818 154.944 24.4613 155.164 24.6005C155.384 24.7397 155.574 24.9486 155.714 25.2071C155.854 25.4656 155.924 25.7639 155.924 26.112C155.924 26.4799 155.834 26.808 155.664 27.0964C155.494 27.3848 155.224 27.6035 154.864 27.7626C154.504 27.9217 154.064 28.0013 153.524 28.0013H150.813V20.971H153.424ZM153.434 27.0964C153.924 27.0964 154.274 26.997 154.504 26.818C154.744 26.6291 154.854 26.3805 154.854 26.0722C154.854 25.8435 154.794 25.6446 154.684 25.4557C154.574 25.2668 154.404 25.1275 154.194 25.0182C153.984 24.9088 153.744 24.8591 153.464 24.8591H151.893V27.1064H153.424L153.434 27.0964ZM153.334 24.0138C153.574 24.0138 153.784 23.9641 153.974 23.8746C154.174 23.7851 154.324 23.6559 154.434 23.4868C154.544 23.3178 154.604 23.1288 154.604 22.9001C154.604 22.5919 154.494 22.3532 154.284 22.1643C154.074 21.9754 153.764 21.8859 153.354 21.8859H151.903V24.0138H153.334ZM157.635 29.9901C157.355 29.9901 157.165 29.9702 157.075 29.9602V29.0951C157.125 29.0951 157.285 29.0951 157.545 29.115C157.685 29.115 157.795 29.0951 157.875 29.0752C157.965 29.0553 158.045 28.9957 158.135 28.8863C158.225 28.7869 158.305 28.6377 158.385 28.4289L158.515 28.0809L156.575 22.741H157.685L159.025 26.8279H159.085L160.426 22.741H161.546L159.355 28.7173C159.195 29.1448 158.985 29.463 158.705 29.6719C158.425 29.8807 158.075 29.9901 157.635 30V29.9901ZM166.238 20.971L168.478 26.4202H168.568L170.809 20.971H172.119V28.0013H171.099V22.92H171.029L168.959 27.9914H168.108L166.028 22.9101H165.968V28.0013H164.937V20.971H166.248H166.238ZM173.55 28.0112V20.981H175.911C176.601 20.981 177.191 21.1202 177.691 21.3986C178.191 21.6771 178.572 22.0848 178.842 22.6118C179.112 23.1388 179.242 23.7652 179.242 24.4812C179.242 25.1972 179.102 25.8435 178.842 26.3705C178.572 26.8975 178.191 27.3052 177.681 27.5837C177.171 27.8621 176.561 28.0013 175.851 28.0013H173.56L173.55 28.0112ZM175.791 27.0765C176.581 27.0765 177.181 26.8478 177.581 26.4103C177.981 25.9628 178.181 25.3264 178.181 24.4911C178.181 23.6559 177.981 23.0195 177.581 22.5819C177.191 22.1444 176.611 21.9256 175.841 21.9256H174.62V27.0964H175.781L175.791 27.0765ZM181.532 28.0112H180.462V20.981H181.532V28.0112Z" fill="#746661"/>
</g>
<defs>
<clipPath id="clip0_714_33865">
<rect width="182.003" height="30" fill="white"/>
</clipPath>
</defs>
</svg>
